<svg width="36" height="36" viewBox="0 0 36 36" fill="none" xmlns="http://www.w3.org/2000/svg">
<g clip-path="url(#clip0_5_36)">
<path d="M8.2215 2.98805C8.08867 2.81719 7.92101 2.67655 7.72965 2.57546C7.5383 2.47437 7.32762 2.41516 7.11162 2.40175C6.89561 2.38835 6.67923 2.42105 6.47684 2.4977C6.27445 2.57434 6.09068 2.69318 5.93775 2.8463L3.61125 5.17505C2.5245 6.26405 2.124 7.8053 2.59875 9.15755C4.56916 14.7546 7.77441 19.8363 11.9767 24.0256C16.1661 28.2278 21.2477 31.4331 26.8447 33.4036C28.197 33.8783 29.7383 33.4778 30.8272 32.3911L33.1537 30.0646C33.3069 29.9116 33.4257 29.7279 33.5024 29.5255C33.579 29.3231 33.6117 29.1067 33.5983 28.8907C33.5849 28.6747 33.5257 28.464 33.4246 28.2726C33.3235 28.0813 33.1829 27.9136 33.012 27.7808L27.8212 23.7443C27.6387 23.6027 27.4264 23.5045 27.2003 23.4569C26.9743 23.4094 26.7404 23.4138 26.5162 23.4698L21.5888 24.7006C20.931 24.8649 20.2419 24.8562 19.5886 24.6752C18.9352 24.4943 18.3399 24.1472 17.8605 23.6678L12.3345 18.1396C11.8547 17.6604 11.5072 17.0651 11.3259 16.4118C11.1445 15.7584 11.1354 15.0692 11.2995 14.4113L12.5325 9.4838C12.5885 9.25969 12.593 9.02578 12.5454 8.79972C12.4979 8.57366 12.3996 8.36134 12.258 8.1788L8.2215 2.98805ZM4.239 1.1498C4.63274 0.75594 5.10576 0.450347 5.62666 0.253316C6.14756 0.0562856 6.70442 -0.0276739 7.26026 0.00701273C7.81609 0.0416994 8.35819 0.194238 8.85056 0.454501C9.34292 0.714764 9.77428 1.07679 10.116 1.51655L14.1525 6.70505C14.8927 7.6568 15.1537 8.89655 14.8612 10.0666L13.6305 14.9941C13.5669 15.2493 13.5703 15.5166 13.6405 15.7701C13.7107 16.0236 13.8452 16.2546 14.031 16.4408L19.5592 21.9691C19.7456 22.1552 19.9771 22.29 20.231 22.3602C20.4849 22.4304 20.7527 22.4336 21.0082 22.3696L25.9335 21.1388C26.5109 20.9944 27.1135 20.9832 27.6959 21.106C28.2782 21.2288 28.8251 21.4824 29.295 21.8476L34.4835 25.8841C36.3488 27.3353 36.5197 30.0916 34.8503 31.7588L32.5238 34.0853C30.8587 35.7503 28.3702 36.4816 26.0505 35.6648C20.1132 33.5757 14.7224 30.1767 10.278 25.7198C5.8214 21.2761 2.42237 15.8861 0.332999 9.94955C-0.481501 7.63205 0.249749 5.1413 1.91475 3.4763L4.24125 1.1498H4.239Z" fill="#4C7BFF"/>
</g>
<defs>
<clipPath id="clip0_5_36">
<rect width="36" height="36" fill="white"/>
</clipPath>
</defs>
</svg>
