<svg width="36" height="36" viewBox="0 0 36 36" fill="none" xmlns="http://www.w3.org/2000/svg">
<path d="M27.8086 18.7207C28.2891 19.5645 28.6465 20.4434 28.8809 21.3574C29.1152 22.2715 29.2383 23.2148 29.25 24.1875V25.998L18 31.6406L6.75 25.998C6.75 25.2949 6.75586 24.6387 6.76758 24.0293C6.7793 23.4199 6.83203 22.8281 6.92578 22.2539C7.01953 21.6797 7.16016 21.1055 7.34766 20.5312C7.53516 19.957 7.81641 19.3535 8.19141 18.7207L4.5 16.875V27.1934C4.83984 27.3105 5.14453 27.4746 5.41406 27.6855C5.68359 27.8965 5.92383 28.1426 6.13477 28.4238C6.3457 28.7051 6.49805 29.0098 6.5918 29.3379C6.68555 29.666 6.73828 30.0117 6.75 30.375V36H0V30.375C0 30.0234 0.0527344 29.6836 0.158203 29.3555C0.263672 29.0273 0.416016 28.7168 0.615234 28.4238C0.814453 28.1309 1.04883 27.8848 1.31836 27.6855C1.58789 27.4863 1.89844 27.3223 2.25 27.1934V15.75L0 14.625L18 5.625L36 14.625L27.8086 18.7207ZM4.5 30.375C4.5 30.0703 4.38867 29.8066 4.16602 29.584C3.94336 29.3613 3.67969 29.25 3.375 29.25C3.07031 29.25 2.80664 29.3613 2.58398 29.584C2.36133 29.8066 2.25 30.0703 2.25 30.375V33.75H4.5V30.375ZM5.02734 14.625L18 21.1113L30.9727 14.625L18 8.13867L5.02734 14.625ZM27 24.6094C27 23.707 26.9121 22.8691 26.7363 22.0957C26.5605 21.3223 26.25 20.5312 25.8047 19.7227L18 23.625L10.1953 19.7227C9.80859 20.4023 9.51562 21.1172 9.31641 21.8672C9.11719 22.6172 9.01172 23.3906 9 24.1875V24.6094L18 29.1094L27 24.6094Z" fill="#7498FF"/>
</svg>
