<svg width="36" height="36" viewBox="0 0 36 36" fill="none" xmlns="http://www.w3.org/2000/svg">
<path d="M27 12.465C26.46 11.85 25.905 11.235 25.32 10.65L24.885 10.245L25.095 10.065C25.8285 9.43529 26.3513 8.59575 26.5927 7.65963C26.8341 6.72352 26.7825 5.73588 26.445 4.82998C25.9559 3.80843 25.1814 2.95038 24.2151 2.35945C23.2489 1.76852 22.1322 1.47001 21 1.49998V4.49998C21.5337 4.49255 22.0597 4.62764 22.5238 4.89132C22.9879 5.15499 23.3732 5.53771 23.64 5.99998C23.895 6.59998 23.64 7.25998 22.935 7.96498C22.83 8.08498 22.71 8.15998 22.605 8.26498C18.105 4.64998 13.17 2.60998 10.755 5.02498C10.502 5.28358 10.2942 5.58271 10.14 5.90998V6.05998L9.87 6.85498L3.255 26.505C3.00479 27.2455 2.93459 28.0349 3.05024 28.8079C3.16589 29.581 3.46405 30.3153 3.92002 30.9501C4.37599 31.585 4.97665 32.102 5.67225 32.4585C6.36786 32.815 7.13838 33.0006 7.92 33C8.43035 32.995 8.93667 32.9089 9.42 32.745L30 25.92C30.2529 25.8258 30.4757 25.6652 30.645 25.455L30.96 25.185C33.105 23.025 31.725 18.87 28.845 14.835C30.5551 13.837 32.5241 13.3721 34.5 13.5V10.5C31.856 10.3545 29.233 11.0417 27 12.465ZM8.55 29.895C8.20951 30.0077 7.8444 30.0235 7.49543 29.9407C7.14645 29.858 6.82735 29.6798 6.57374 29.4262C6.32014 29.1726 6.142 28.8535 6.05923 28.5046C5.97646 28.1556 5.99231 27.7905 6.105 27.45L8.145 21.3C9.60087 24.0763 11.8379 26.3655 14.58 27.885L8.55 29.895ZM19.05 26.4C16.7831 25.7996 14.7151 24.6108 13.0556 22.9539C11.3961 21.297 10.204 19.2309 9.6 16.965L11.1 12.465L11.19 12.6C11.355 12.93 11.565 13.275 11.775 13.62C11.985 13.965 12.015 14.055 12.165 14.28C12.315 14.505 12.66 15 12.93 15.375C13.2 15.75 13.215 15.795 13.38 16.005C13.545 16.215 14.025 16.83 14.37 17.235L14.805 17.76C15.315 18.345 15.855 18.915 16.425 19.5C16.995 20.085 17.445 20.46 17.925 21L18.42 21.42L19.59 22.365L20.145 22.785C20.565 23.085 20.97 23.385 21.39 23.655L21.855 23.955C22.395 24.285 22.935 24.6 23.46 24.87H23.535L19.05 26.4ZM28.815 23.055H28.725C27.69 23.625 23.385 22.2 18.54 17.34C18.03 16.83 17.55 16.335 17.115 15.84L16.68 15.315L15.885 14.355L15.45 13.755C15.255 13.47 15.045 13.2 14.865 12.93L14.475 12.3L14.04 11.595C13.92 11.385 13.83 11.19 13.725 10.995C13.62 10.8 13.5 10.605 13.41 10.395C13.3295 10.2192 13.2594 10.0389 13.2 9.85498C13.125 9.65998 13.035 9.46498 12.975 9.28498C12.915 9.10498 12.9 8.99998 12.855 8.81998C12.81 8.63998 12.78 8.48998 12.75 8.33998C12.7425 8.21009 12.7425 8.07987 12.75 7.94998C12.7355 7.83041 12.7355 7.70954 12.75 7.58998L12.915 7.12498C13.455 6.58498 16.26 7.12498 20.01 9.97498C19.3743 10.2619 18.6948 10.4394 18 10.5V13.5C19.5933 13.4083 21.1393 12.9239 22.5 12.09L23.22 12.78C23.85 13.41 24.435 14.055 24.99 14.7C24.1314 16.2527 23.8147 18.0472 24.09 19.8L27.09 19.215C27.0016 18.6585 27.0016 18.0915 27.09 17.535C27.5478 18.2292 27.9539 18.9562 28.305 19.71C29.145 21.69 29.085 22.8 28.815 23.055Z" fill="#FFCC69"/>
</svg>
