<svg width="36" height="36" viewBox="0 0 36 36" fill="none" xmlns="http://www.w3.org/2000/svg">
<g clip-path="url(#clip0_4_129)">
<path d="M15 17H18V19H15V17Z" fill="#7498FF"/>
<path d="M26.45 14.17C24.6765 11.2678 22.257 8.81411 19.38 6.99999C18.0509 6.15763 16.5358 5.65343 14.967 5.53141C13.3982 5.40939 11.8234 5.67326 10.38 6.29999C9.11751 6.89549 8.01894 7.78936 7.17918 8.9044C6.33941 10.0194 5.78369 11.3221 5.56 12.7C5.48 13.17 5.42 13.62 5.36 14.06C4.42375 14.2117 3.57188 14.6912 2.95643 15.4129C2.34098 16.1346 2.00201 17.0515 2 18V24.13C2 24.6604 2.21071 25.1691 2.58579 25.5442C2.96086 25.9193 3.46957 26.13 4 26.13V18C4 17.4696 4.21071 16.9608 4.58579 16.5858C4.96086 16.2107 5.46957 16 6 16H24.73C26.6573 16.0026 28.5049 16.7694 29.8677 18.1322C31.2306 19.4951 31.9974 21.3427 32 23.27V24H30C29.5777 22.9701 28.7909 22.1318 27.7899 21.645C26.7889 21.1581 25.6436 21.0569 24.5727 21.3606C23.5019 21.6644 22.5803 22.3517 21.9839 23.2916C21.3875 24.2314 21.158 25.358 21.3392 26.4562C21.5204 27.5545 22.0996 28.5476 22.9664 29.2461C23.8331 29.9445 24.9266 30.2994 26.0383 30.2429C27.15 30.1865 28.202 29.7228 28.9936 28.9402C29.7852 28.1576 30.2609 27.111 30.33 26H32C32.5304 26 33.0391 25.7893 33.4142 25.4142C33.7893 25.0391 34 24.5304 34 24V23.27C33.996 21.1119 33.2399 19.0227 31.862 17.3618C30.484 15.701 28.5702 14.5723 26.45 14.17ZM11 14H6.93C6.93 13.69 7.02 13.37 7.08 13C7.25277 11.9014 7.70365 10.8653 8.38976 9.9902C9.07588 9.11505 9.97443 8.42994 11 7.99999V14ZM13 14V7.57999C14.867 7.33755 16.7603 7.74731 18.36 8.73998C20.5437 10.1002 22.4285 11.8897 23.9 14H13ZM25.8 28.38C25.3055 28.38 24.8222 28.2334 24.4111 27.9587C24 27.684 23.6795 27.2935 23.4903 26.8367C23.3011 26.3799 23.2516 25.8772 23.348 25.3923C23.4445 24.9073 23.6826 24.4618 24.0322 24.1122C24.3819 23.7626 24.8273 23.5245 25.3123 23.428C25.7972 23.3316 26.2999 23.3811 26.7567 23.5703C27.2135 23.7595 27.604 24.0799 27.8787 24.4911C28.1534 24.9022 28.3 25.3855 28.3 25.88C28.3 26.543 28.0366 27.1789 27.5678 27.6478C27.0989 28.1166 26.463 28.38 25.8 28.38Z" fill="#7498FF"/>
<path d="M14.17 24C13.7477 22.9701 12.9609 22.1318 11.9599 21.645C10.9589 21.1582 9.81364 21.057 8.74275 21.3607C7.67187 21.6644 6.75029 22.3517 6.15387 23.2916C5.55746 24.2314 5.32796 25.358 5.50918 26.4563C5.69039 27.5545 6.26963 28.5476 7.13636 29.2461C8.0031 29.9445 9.09664 30.2994 10.2083 30.243C11.32 30.1865 12.372 29.7228 13.1636 28.9402C13.9552 28.1576 14.4309 27.111 14.5 26H19.8V25.75C19.7802 25.16 19.8476 24.5703 20 24H14.17ZM10 28.38C9.50555 28.38 9.0222 28.2334 8.61108 27.9587C8.19996 27.684 7.87953 27.2935 7.69031 26.8367C7.50109 26.3799 7.45158 25.8772 7.54804 25.3923C7.64451 24.9073 7.88261 24.4619 8.23224 24.1122C8.58187 23.7626 9.02733 23.5245 9.51228 23.428C9.99723 23.3316 10.4999 23.3811 10.9567 23.5703C11.4135 23.7595 11.804 24.08 12.0787 24.4911C12.3534 24.9022 12.5 25.3855 12.5 25.88C12.5 26.543 12.2366 27.1789 11.7678 27.6478C11.2989 28.1166 10.663 28.38 10 28.38Z" fill="#7498FF"/>
</g>
<defs>
<clipPath id="clip0_4_129">
<rect width="36" height="36" fill="white"/>
</clipPath>
</defs>
</svg>
