<svg width="36" height="36" viewBox="0 0 36 36" fill="none" xmlns="http://www.w3.org/2000/svg">
<path d="M20.925 0.580088C19.0473 -0.193363 16.9527 -0.193363 15.075 0.580088L2.12175 5.92028C1.49605 6.17794 0.959578 6.62258 0.581434 7.19693C0.203291 7.77128 0.000786181 8.44904 4.71051e-08 9.14293V26.8571C-0.000112644 27.5518 0.201972 28.2305 0.580174 28.8058C0.958375 29.3811 1.49533 29.8264 2.12175 30.0844L15.075 35.4199C16.9527 36.1934 19.0473 36.1934 20.925 35.4199L33.8783 30.0844C34.5047 29.8264 35.0416 29.3811 35.4198 28.8058C35.798 28.2305 36.0001 27.5518 36 26.8571V9.14293C35.9997 8.44864 35.7974 7.77038 35.4192 7.19557C35.041 6.62077 34.5043 6.17577 33.8783 5.91796L20.925 0.580088ZM15.912 2.7347C17.2531 2.18232 18.7492 2.18232 20.0903 2.7347L31.8465 7.57678L26.7188 9.68506L12.8723 3.98576L15.9097 2.7347H15.912ZM9.84375 5.22988L23.6903 10.9315L18 13.2784L4.1535 7.57446L9.84375 5.23219V5.22988ZM19.125 15.3079L33.75 9.28425V26.8548C33.7504 27.0865 33.6833 27.313 33.5573 27.5051C33.4314 27.6971 33.2524 27.8459 33.0435 27.9321L20.088 33.2676C19.773 33.395 19.4513 33.4947 19.125 33.5642V15.3079ZM16.875 15.3079V33.5642C16.5461 33.495 16.2238 33.3958 15.912 33.2676L2.9565 27.9321C2.74795 27.846 2.56921 27.6976 2.44329 27.506C2.31737 27.3144 2.25005 27.0884 2.25 26.8571V9.28657L16.875 15.3102V15.3079Z" fill="#80DC94"/>
</svg>
