<svg width="36" height="36" viewBox="0 0 36 36" fill="none" xmlns="http://www.w3.org/2000/svg">
<path d="M21.375 31.5H14.625C14.0284 31.4994 13.4565 31.2622 13.0347 30.8403C12.6128 30.4185 12.3756 29.8466 12.375 29.25V23.625H6.75C6.15345 23.6244 5.5815 23.3872 5.15967 22.9653C4.73784 22.5435 4.5006 21.9716 4.5 21.375V14.625C4.5006 14.0284 4.73784 13.4565 5.15967 13.0347C5.5815 12.6128 6.15345 12.3756 6.75 12.375H12.375V6.75C12.3756 6.15345 12.6128 5.5815 13.0347 5.15967C13.4565 4.73784 14.0284 4.5006 14.625 4.5H21.375C21.9716 4.5006 22.5435 4.73784 22.9653 5.15967C23.3872 5.5815 23.6244 6.15345 23.625 6.75V12.375H29.25C29.8466 12.3756 30.4185 12.6128 30.8403 13.0347C31.2622 13.4565 31.4994 14.0284 31.5 14.625V21.375C31.4991 21.9715 31.2618 22.5432 30.84 22.965C30.4182 23.3868 29.8465 23.6241 29.25 23.625H23.625V29.25C23.6241 29.8465 23.3868 30.4182 22.965 30.84C22.5432 31.2618 21.9715 31.4991 21.375 31.5ZM6.75 14.625V21.375H14.625V29.25H21.375V21.375H29.25V14.625H21.375V6.75H14.625V14.625H6.75Z" fill="#FF7979"/>
</svg>
