<svg width="25" height="29" viewBox="0 0 25 29" fill="none" xmlns="http://www.w3.org/2000/svg">
<path d="M7.30651 11.4048C7.38176 11.6311 7.36413 11.878 7.25748 12.0913C7.15083 12.3046 6.96389 12.4668 6.73771 12.5424C6.46137 12.6298 6.20506 12.771 5.98355 12.9579C5.76205 13.1448 5.57973 13.3737 5.44711 13.6314C5.11411 14.2596 4.88551 15.2928 5.09611 16.9794C5.11832 17.2126 5.04873 17.4453 4.9021 17.628C4.75548 17.8107 4.5434 17.9291 4.31091 17.9579C4.07843 17.9867 3.84386 17.9238 3.65706 17.7824C3.47025 17.641 3.34593 17.4324 3.31051 17.2008C3.07111 15.2874 3.29251 13.8456 3.85951 12.7854C4.43551 11.7054 5.31211 11.1204 6.16891 10.836C6.3952 10.7608 6.6421 10.7784 6.8554 10.885C7.06869 10.9917 7.23094 11.1786 7.30651 11.4048ZM16.1877 1.7424C16.4056 1.66046 16.5833 1.49729 16.6834 1.28715C16.7835 1.077 16.7983 0.836232 16.7247 0.615396C16.6511 0.39456 16.4948 0.210835 16.2886 0.1028C16.0824 -0.0052356 15.8424 -0.0291775 15.6189 0.0360013C13.9305 0.597601 12.8775 1.9836 12.2601 3.4686C12.1764 3.66931 12.0995 3.87283 12.0297 4.0788C11.6931 3.44017 11.2622 2.85583 10.7517 2.3454C10.0599 1.65205 9.23348 1.10755 8.32341 0.74538C7.41333 0.383208 6.43879 0.211019 5.45971 0.239401C4.95829 0.253009 4.48111 0.458155 4.12625 0.812681C3.77139 1.16721 3.56579 1.64419 3.55171 2.1456C3.52333 3.13783 3.70094 4.12518 4.07333 5.04531C4.44573 5.96545 5.00482 6.79841 5.71531 7.4916C4.20331 7.81912 2.83691 8.62472 1.81834 9.78917C0.79977 10.9536 0.183143 12.4151 0.0597133 13.9572L0.0489132 14.0904C-0.18872 17.0554 0.443048 20.0253 1.86691 22.6368L2.51311 23.8212C2.53111 23.8518 2.54911 23.8824 2.57071 23.9112L4.37071 26.4348C4.77867 27.0061 5.30621 27.4817 5.91662 27.8285C6.52703 28.1753 7.20566 28.3849 7.9053 28.4428C8.60495 28.5007 9.30881 28.4055 9.96792 28.1638C10.627 27.9221 11.2256 27.5397 11.7219 27.0432C11.7981 26.967 11.8886 26.9065 11.9882 26.8652C12.0878 26.8239 12.1946 26.8027 12.3024 26.8027C12.4102 26.8027 12.517 26.8239 12.6166 26.8652C12.7162 26.9065 12.8067 26.967 12.8829 27.0432C13.3792 27.5397 13.9778 27.9221 14.6369 28.1638C15.296 28.4055 15.9999 28.5007 16.6995 28.4428C17.3992 28.3849 18.0778 28.1753 18.6882 27.8285C19.2986 27.4817 19.8262 27.0061 20.2341 26.4348L22.0341 23.913C22.0557 23.8836 22.0756 23.853 22.0935 23.8212L22.7379 22.6368C24.1624 20.0255 24.7948 17.0555 24.5577 14.0904L24.5469 13.9572C24.4672 12.9634 24.182 11.997 23.7093 11.1191C23.2366 10.2413 22.5868 9.47122 21.801 8.85764C21.0151 8.24407 20.1104 7.80039 19.1442 7.55471C18.1779 7.30902 17.1712 7.26669 16.1877 7.4304L13.2033 7.9272C13.2213 6.7014 13.4373 5.3226 13.9197 4.1598C14.4255 2.9448 15.1743 2.0808 16.1877 1.7424ZM9.99571 7.6932L9.71851 7.6464C8.66216 7.44214 7.69146 6.92543 6.93211 6.1632C6.41172 5.64454 6.00304 5.02482 5.73124 4.34223C5.45944 3.65963 5.33028 2.92861 5.35171 2.1942C5.35219 2.1525 5.36908 2.11267 5.39874 2.08336C5.42839 2.05404 5.46841 2.0376 5.51011 2.0376C6.24422 2.01641 6.9749 2.14569 7.65717 2.41749C8.33944 2.68928 8.95886 3.09784 9.47731 3.618C10.5699 4.7106 11.0973 6.1524 11.0577 7.587C11.0572 7.62839 11.0406 7.66795 11.0113 7.69722C10.9821 7.72648 10.9425 7.74313 10.9011 7.7436C10.5984 7.75205 10.2956 7.73519 9.99571 7.6932ZM9.40531 9.4194L9.71851 9.4716L11.1189 9.7056C11.9031 9.83638 12.7035 9.83638 13.4877 9.7056L16.4829 9.2052C17.2207 9.08214 17.976 9.11371 18.701 9.2979C19.426 9.48209 20.1048 9.81488 20.6944 10.2752C21.2839 10.7355 21.7715 11.3133 22.126 11.9719C22.4806 12.6305 22.6945 13.3556 22.7541 14.1012L22.7631 14.2344C22.9725 16.851 22.4146 19.472 21.1575 21.7764L20.5383 22.9104L18.7689 25.3872C18.513 25.7459 18.1821 26.0445 17.799 26.2623C17.416 26.48 16.9902 26.6118 16.5511 26.6482C16.112 26.6847 15.6702 26.6251 15.2565 26.4736C14.8428 26.322 14.4671 26.0821 14.1555 25.7706C13.664 25.2792 12.9975 25.0031 12.3024 25.0031C11.6074 25.0031 10.9408 25.2792 10.4493 25.7706C10.1377 26.0821 9.76201 26.322 9.3483 26.4736C8.93459 26.6251 8.49283 26.6847 8.05375 26.6482C7.61466 26.6118 7.1888 26.48 6.80579 26.2623C6.42277 26.0445 6.09181 25.7459 5.83591 25.3872L4.06651 22.9104L3.44731 21.7764C2.19025 19.472 1.63228 16.851 1.84171 14.2344L1.85251 14.1012C1.91213 13.3556 2.12601 12.6305 2.48058 11.9719C2.83515 11.3133 3.32268 10.7355 3.91228 10.2752C4.50187 9.81488 5.18066 9.48209 5.90562 9.2979C6.63059 9.11371 7.38591 9.08214 8.12371 9.2052L9.40531 9.4194Z" fill="#FF7979"/>
</svg>
