<svg width="36" height="36" viewBox="0 0 36 36" fill="none" xmlns="http://www.w3.org/2000/svg">
<path fill-rule="evenodd" clip-rule="evenodd" d="M35.4924 6.38639L33.4856 5.91283L28.062 11.3073L24.9901 8.17767L30.2798 2.62625L29.8167 0.587905C28.6989 0.213822 27.5297 0.0158587 26.3511 0.00110754C25.0653 -0.0186705 23.7893 0.226634 22.6024 0.721736C21.4565 1.24061 20.4207 1.97449 19.5511 2.88362C18.583 3.80091 17.8164 4.90964 17.2998 6.13932C16.3053 8.58658 16.3053 11.3256 17.2998 13.7728C11.936 19.0514 6.64153 24.4 1.41764 29.8171C0.877341 30.5249 0.620056 31.4076 0.68695 32.2956C0.739672 33.2506 1.16902 34.1456 1.88075 34.7843C2.19978 35.1317 2.58056 35.42 3.00508 35.6285C3.44247 35.8215 3.9133 35.9322 4.38928 35.9553C5.20229 35.9399 5.98187 35.631 6.58649 35.088C10.5693 31.3381 18.2003 23.6351 22.5356 19.1209C23.7113 19.6202 24.9746 19.8776 26.2507 19.875C27.5353 19.874 28.8067 19.6154 29.9896 19.1146C31.1726 18.6138 32.2432 17.8808 33.1383 16.959C34.9767 15.0835 36.0035 12.5596 35.9967 9.93291C36.0264 8.73094 35.856 7.5324 35.4924 6.38639ZM5.02991 33.2633C4.93088 33.3512 4.81151 33.4131 4.68258 33.4434C4.55574 33.4654 4.42607 33.4654 4.29923 33.4434C4.16623 33.4231 4.03957 33.373 3.92874 33.2967C3.80981 33.2271 3.70924 33.13 3.63543 33.0136C3.27523 32.6456 2.93819 31.9455 3.27523 31.5518C6.80003 27.8019 14.058 20.4721 18.5965 15.9913C18.8538 16.3311 19.1368 16.6553 19.4404 16.959C19.744 17.2756 20.0708 17.569 20.4181 17.8367C16.0288 22.3406 8.87117 29.5829 5.03249 33.2633H5.02991ZM33.6348 9.93291C33.64 11.9018 32.8732 13.7934 31.4942 15.2038C30.1181 16.5542 28.2672 17.3107 26.3395 17.3107C24.4118 17.3107 22.561 16.5542 21.1848 15.2038C20.1762 14.1509 19.4872 12.8332 19.198 11.4039C18.9088 9.97461 19.0312 8.49257 19.5511 7.13018C19.8971 6.20297 20.4338 5.35874 21.1265 4.65207C21.8192 3.9454 22.6525 3.39203 23.5724 3.02775C24.4459 2.66205 25.3836 2.47479 26.3305 2.47698H26.984L22.3091 7.29747V9.08875L27.1847 13.9427H28.8828L33.6348 9.2689V9.93291ZM5.81978 14.6299H9.7588L11.5727 16.4752L13.317 14.7405L11.6061 12.9956V12.8849L11.7528 8.64093L11.1867 7.51623L3.82839 2.67258L2.30784 2.84244L0.169808 5.02749L0 6.56912L4.72889 14.0791L5.81978 14.6324V14.6299ZM3.38844 5.28228L9.342 9.20456L9.24166 12.0948H6.47328L2.63459 6.01578L3.38844 5.28228ZM21.6685 23.195L23.4026 21.463L31.3939 29.6601C32.067 30.3678 32.4424 31.3072 32.4424 32.284C32.4424 33.2608 32.067 34.2002 31.3939 34.9078C30.8877 35.4276 30.2369 35.7829 29.5261 35.9275C28.8153 36.0721 28.0774 35.9993 27.4085 35.7185C26.9816 35.5291 26.5988 35.2531 26.2842 34.9078L18.2003 26.6644L19.9473 24.9194L28.0054 33.1397C28.1138 33.2593 28.2486 33.3518 28.3991 33.41C28.6952 33.5303 29.0266 33.5303 29.3227 33.41C29.4732 33.3517 29.608 33.2592 29.7164 33.1397C29.829 33.0281 29.9167 32.8939 29.9737 32.7459C30.0327 32.5949 30.0641 32.4345 30.0663 32.2724C30.0637 32.1105 30.0332 31.9503 29.9762 31.7988C29.9192 31.6509 29.8316 31.5167 29.7189 31.4051L21.6685 23.195Z" fill="#D55BFF"/>
</svg>
