<svg width="36" height="36" viewBox="0 0 36 36" fill="none" xmlns="http://www.w3.org/2000/svg">
<path d="M24 3C19.86 3 16.5 6.36 16.5 10.5C16.5 14.64 19.86 18 24 18C28.14 18 31.5 14.64 31.5 10.5C31.5 6.36 28.14 3 24 3ZM24 15C21.51 15 19.5 12.99 19.5 10.5C19.5 8.01 21.51 6 24 6C26.49 6 28.5 8.01 28.5 10.5C28.5 12.99 26.49 15 24 15ZM28.5 24H25.5C25.5 22.2 24.375 20.58 22.695 19.95L13.455 16.5H1.5V33H10.5V30.84L21 33.75L33 30V28.5C33 26.01 30.99 24 28.5 24ZM7.5 30H4.5V19.5H7.5V30ZM20.955 30.615L10.5 27.75V19.5H12.915L21.645 22.755C22.155 22.95 22.5 23.445 22.5 24C22.5 24 19.5 23.925 19.05 23.775L15.48 22.59L14.535 25.44L18.105 26.625C18.87 26.88 19.665 27 20.475 27H28.5C29.085 27 29.61 27.36 29.85 27.855L20.955 30.615Z" fill="#7498FF"/>
</svg>
