<svg width="36" height="36" viewBox="0 0 36 36" fill="none" xmlns="http://www.w3.org/2000/svg">
<g clip-path="url(#clip0_5_31)">
<path d="M35.77 8.15995C35.6934 7.67328 35.4706 7.22139 35.1313 6.8642C34.792 6.50702 34.3521 6.26141 33.87 6.15995L28 4.86995C27.3705 4.73266 26.7189 4.73215 26.0892 4.86844C25.4595 5.00473 24.8664 5.27465 24.35 5.65995L6.99999 18.3L2.13999 18.1C1.74931 18.086 1.36415 18.1954 1.03922 18.4128C0.714292 18.6302 0.466117 18.9444 0.329943 19.3109C0.193769 19.6773 0.17652 20.0774 0.280647 20.4542C0.384773 20.831 0.604981 21.1654 0.909992 21.41L5.90999 25.34C6.50999 26.07 6.90999 25.93 16.84 20.52L17.77 29.94C17.7855 30.1969 17.8736 30.4442 18.024 30.6531C18.1745 30.862 18.3812 31.0239 18.62 31.12C18.7918 31.1879 18.9752 31.2218 19.16 31.22C19.5319 31.2086 19.8871 31.0629 20.16 30.81L22.55 28.63C22.788 28.4095 22.9492 28.1186 23.01 27.8L25.2 15.9C28.77 13.9 32.15 12.02 34.56 10.65C34.9912 10.4074 35.338 10.0391 35.5543 9.59411C35.7705 9.14916 35.8457 8.64882 35.77 8.15995ZM33.57 8.90995C31.07 10.33 27.57 12.32 23.81 14.38L23.4 14.61L21.07 27.28L19.6 28.62L18.5 17.32L17.17 18C9.99999 22 7.60999 23.16 6.78999 23.52L2.48999 20.11L7.56999 20.33L25.57 7.26995C25.8529 7.05843 26.1773 6.90901 26.522 6.83146C26.8666 6.75392 27.2237 6.75 27.57 6.81995L33.42 8.07995C33.5101 8.09629 33.5927 8.141 33.6557 8.20756C33.7186 8.27411 33.7587 8.35904 33.77 8.44995C33.7906 8.53794 33.7822 8.63022 33.7462 8.71309C33.7102 8.79596 33.6484 8.86499 33.57 8.90995Z" fill="#FFCC69"/>
<path d="M7 12.54L10.56 13.54L12.2 12.35L8.2 11.19L10 10.09L15.47 9.93001L17.77 8.26001L10 8.50001C9.75504 8.48676 9.5116 8.54588 9.3 8.67001L6.67 10.2C6.45257 10.3288 6.27813 10.5191 6.16867 10.7469C6.05922 10.9747 6.01964 11.2298 6.05493 11.48C6.09022 11.7303 6.1988 11.9645 6.36698 12.1531C6.53517 12.3417 6.75542 12.4764 7 12.54Z" fill="#FFCC69"/>
</g>
<defs>
<clipPath id="clip0_5_31">
<rect width="36" height="36" fill="white"/>
</clipPath>
</defs>
</svg>
