<svg width="36" height="36" viewBox="0 0 36 36" fill="none" xmlns="http://www.w3.org/2000/svg">
<g clip-path="url(#clip0_5_28)">
<path d="M6.6825 3.0375C6.89374 2.79053 7.15598 2.59225 7.45118 2.45631C7.74637 2.32036 8.06751 2.24998 8.3925 2.25H27.6075C27.9325 2.24998 28.2536 2.32036 28.5488 2.45631C28.844 2.59225 29.1063 2.79053 29.3175 3.0375L35.1878 9.8865C35.7119 10.4981 36 11.277 36 12.0825V12.6562C36.0001 13.7699 35.6523 14.8559 35.0051 15.7622C34.3579 16.6685 33.4437 17.35 32.3903 17.7114C31.3368 18.0728 30.1968 18.096 29.1295 17.7779C28.0623 17.4597 27.1211 16.816 26.4375 15.9368C25.9383 16.5797 25.2986 17.0999 24.5674 17.4576C23.8361 17.8152 23.0328 18.0007 22.2188 18C21.4047 18.0009 20.6013 17.8154 19.87 17.4578C19.1387 17.1002 18.4991 16.5799 18 15.9368C17.5009 16.5799 16.8613 17.1002 16.13 17.4578C15.3987 17.8154 14.5953 18.0009 13.7812 18C12.9672 18.0009 12.1638 17.8154 11.4325 17.4578C10.7012 17.1002 10.0616 16.5799 9.5625 15.9368C8.87893 16.816 7.93774 17.4597 6.87046 17.7779C5.80318 18.096 4.66316 18.0728 3.60973 17.7114C2.5563 17.35 1.6421 16.6685 0.99491 15.7622C0.347719 14.8559 -0.000122847 13.7699 3.25452e-08 12.6562V12.0825C2.8367e-05 11.277 0.288127 10.4981 0.81225 9.8865L6.68475 3.03525L6.6825 3.0375ZM10.6875 12.6562C10.6875 13.4768 11.0134 14.2637 11.5936 14.8439C12.1738 15.4241 12.9607 15.75 13.7812 15.75C14.6018 15.75 15.3887 15.4241 15.9689 14.8439C16.5491 14.2637 16.875 13.4768 16.875 12.6562C16.875 12.3579 16.9935 12.0717 17.2045 11.8608C17.4155 11.6498 17.7016 11.5312 18 11.5312C18.2984 11.5312 18.5845 11.6498 18.7955 11.8608C19.0065 12.0717 19.125 12.3579 19.125 12.6562C19.125 13.4768 19.4509 14.2637 20.0311 14.8439C20.6113 15.4241 21.3982 15.75 22.2188 15.75C23.0393 15.75 23.8262 15.4241 24.4064 14.8439C24.9866 14.2637 25.3125 13.4768 25.3125 12.6562C25.3125 12.3579 25.431 12.0717 25.642 11.8608C25.853 11.6498 26.1391 11.5312 26.4375 11.5312C26.7359 11.5312 27.022 11.6498 27.233 11.8608C27.444 12.0717 27.5625 12.3579 27.5625 12.6562C27.5625 13.4768 27.8884 14.2637 28.4686 14.8439C29.0488 15.4241 29.8357 15.75 30.6562 15.75C31.4768 15.75 32.2637 15.4241 32.8439 14.8439C33.4241 14.2637 33.75 13.4768 33.75 12.6562V12.0825C33.75 11.8144 33.6543 11.555 33.48 11.3512L27.6075 4.5H8.3925L2.52 11.3512C2.34573 11.555 2.24998 11.8144 2.25 12.0825V12.6562C2.25 13.4768 2.57595 14.2637 3.15614 14.8439C3.73633 15.4241 4.52324 15.75 5.34375 15.75C6.16426 15.75 6.95117 15.4241 7.53136 14.8439C8.11155 14.2637 8.4375 13.4768 8.4375 12.6562C8.4375 12.3579 8.55603 12.0717 8.767 11.8608C8.97798 11.6498 9.26413 11.5312 9.5625 11.5312C9.86087 11.5312 10.147 11.6498 10.358 11.8608C10.569 12.0717 10.6875 12.3579 10.6875 12.6562ZM3.375 19.125C3.67337 19.125 3.95952 19.2435 4.1705 19.4545C4.38147 19.6655 4.5 19.9516 4.5 20.25V33.75H31.5V20.25C31.5 19.9516 31.6185 19.6655 31.8295 19.4545C32.0405 19.2435 32.3266 19.125 32.625 19.125C32.9234 19.125 33.2095 19.2435 33.4205 19.4545C33.6315 19.6655 33.75 19.9516 33.75 20.25V33.75H34.875C35.1734 33.75 35.4595 33.8685 35.6705 34.0795C35.8815 34.2905 36 34.5766 36 34.875C36 35.1734 35.8815 35.4595 35.6705 35.6705C35.4595 35.8815 35.1734 36 34.875 36H1.125C0.826631 36 0.540483 35.8815 0.329505 35.6705C0.118526 35.4595 3.25452e-08 35.1734 3.25452e-08 34.875C3.25452e-08 34.5766 0.118526 34.2905 0.329505 34.0795C0.540483 33.8685 0.826631 33.75 1.125 33.75H2.25V20.25C2.25 19.9516 2.36853 19.6655 2.5795 19.4545C2.79048 19.2435 3.07663 19.125 3.375 19.125ZM7.875 20.25C8.17337 20.25 8.45952 20.3685 8.6705 20.5795C8.88147 20.7905 9 21.0766 9 21.375V29.25H27V21.375C27 21.0766 27.1185 20.7905 27.3295 20.5795C27.5405 20.3685 27.8266 20.25 28.125 20.25C28.4234 20.25 28.7095 20.3685 28.9205 20.5795C29.1315 20.7905 29.25 21.0766 29.25 21.375V29.25C29.25 29.8467 29.0129 30.419 28.591 30.841C28.169 31.2629 27.5967 31.5 27 31.5H9C8.40326 31.5 7.83097 31.2629 7.40901 30.841C6.98705 30.419 6.75 29.8467 6.75 29.25V21.375C6.75 21.0766 6.86853 20.7905 7.0795 20.5795C7.29048 20.3685 7.57663 20.25 7.875 20.25Z" fill="#80DC94"/>
</g>
<defs>
<clipPath id="clip0_5_28">
<rect width="36" height="36" fill="white"/>
</clipPath>
</defs>
</svg>
